solid OpenSCAD_Model
  facet normal -1 0 0
    outer loop
      vertex 0 0 0
      vertex 0 800 20
      vertex 0 800 0
    endloop
  endfacet
  facet normal -1 -0 0
    outer loop
      vertex 0 800 20
      vertex 0 0 0
      vertex 0 0 20
    endloop
  endfacet
  facet normal -0 0 1
    outer loop
      vertex 700 440 20
      vertex 900 380 20
      vertex 900 440 20
    endloop
  endfacet
  facet normal 0 0 1
    outer loop
      vertex 900 380 20
      vertex 700 440 20
      vertex 700 380 20
    endloop
  endfacet
  facet normal 0 0 1
    outer loop
      vertex 900 440 20
      vertex 1600 800 20
      vertex 900 460 20
    endloop
  endfacet
  facet normal 0 0 1
    outer loop
      vertex 1600 800 20
      vertex 700 460 20
      vertex 900 460 20
    endloop
  endfacet
  facet normal 0 0 1
    outer loop
      vertex 0 800 20
      vertex 700 440 20
      vertex 700 460 20
    endloop
  endfacet
  facet normal 0 0 1
    outer loop
      vertex 700 440 20
      vertex 0 800 20
      vertex 700 380 20
    endloop
  endfacet
  facet normal 0 0 1
    outer loop
      vertex 0 0 20
      vertex 700 380 20
      vertex 0 800 20
    endloop
  endfacet
  facet normal -0 0 1
    outer loop
      vertex 0 800 20
      vertex 700 460 20
      vertex 1600 800 20
    endloop
  endfacet
  facet normal 0 0 1
    outer loop
      vertex 900 380 20
      vertex 1600 800 20
      vertex 900 440 20
    endloop
  endfacet
  facet normal 0 0 1
    outer loop
      vertex 1600 800 20
      vertex 900 380 20
      vertex 1600 0 20
    endloop
  endfacet
  facet normal -0 0 1
    outer loop
      vertex 900 360 20
      vertex 1600 0 20
      vertex 900 380 20
    endloop
  endfacet
  facet normal -0 0 1
    outer loop
      vertex 700 360 20
      vertex 1600 0 20
      vertex 900 360 20
    endloop
  endfacet
  facet normal 0 0 1
    outer loop
      vertex 700 360 20
      vertex 0 0 20
      vertex 1600 0 20
    endloop
  endfacet
  facet normal 0 0 1
    outer loop
      vertex 700 380 20
      vertex 0 0 20
      vertex 700 360 20
    endloop
  endfacet
  facet normal 1 -0 0
    outer loop
      vertex 1600 0 20
      vertex 1600 800 0
      vertex 1600 800 20
    endloop
  endfacet
  facet normal 1 0 0
    outer loop
      vertex 1600 800 0
      vertex 1600 0 20
      vertex 1600 0 0
    endloop
  endfacet
  facet normal 0 1 -0
    outer loop
      vertex 1600 800 0
      vertex 0 800 20
      vertex 1600 800 20
    endloop
  endfacet
  facet normal 0 1 0
    outer loop
      vertex 0 800 20
      vertex 1600 800 0
      vertex 0 800 0
    endloop
  endfacet
  facet normal 0 0 -1
    outer loop
      vertex 0 0 0
      vertex 1600 800 0
      vertex 1600 0 0
    endloop
  endfacet
  facet normal -0 0 -1
    outer loop
      vertex 1600 800 0
      vertex 0 0 0
      vertex 0 800 0
    endloop
  endfacet
  facet normal 0 -1 0
    outer loop
      vertex 0 0 0
      vertex 1600 0 20
      vertex 0 0 20
    endloop
  endfacet
  facet normal 0 -1 -0
    outer loop
      vertex 1600 0 20
      vertex 0 0 0
      vertex 1600 0 0
    endloop
  endfacet
  facet normal -1 0 0
    outer loop
      vertex 700 360 20
      vertex 700 380 420
      vertex 700 380 20
    endloop
  endfacet
  facet normal -1 -0 0
    outer loop
      vertex 700 380 420
      vertex 700 360 20
      vertex 700 360 420
    endloop
  endfacet
  facet normal -0 0 1
    outer loop
      vertex 700 380 420
      vertex 900 360 420
      vertex 900 380 420
    endloop
  endfacet
  facet normal 0 0 1
    outer loop
      vertex 900 360 420
      vertex 700 380 420
      vertex 700 360 420
    endloop
  endfacet
  facet normal 1 -0 0
    outer loop
      vertex 900 360 420
      vertex 900 380 20
      vertex 900 380 420
    endloop
  endfacet
  facet normal 1 0 0
    outer loop
      vertex 900 380 20
      vertex 900 360 420
      vertex 900 360 20
    endloop
  endfacet
  facet normal 0 1 -0
    outer loop
      vertex 900 380 20
      vertex 700 380 420
      vertex 900 380 420
    endloop
  endfacet
  facet normal 0 1 0
    outer loop
      vertex 700 380 420
      vertex 900 380 20
      vertex 700 380 20
    endloop
  endfacet
  facet normal 0 -1 0
    outer loop
      vertex 700 360 20
      vertex 900 360 420
      vertex 700 360 420
    endloop
  endfacet
  facet normal 0 -1 -0
    outer loop
      vertex 900 360 420
      vertex 700 360 20
      vertex 900 360 20
    endloop
  endfacet
  facet normal -1 0 0
    outer loop
      vertex 700 440 20
      vertex 700 460 420
      vertex 700 460 20
    endloop
  endfacet
  facet normal -1 -0 0
    outer loop
      vertex 700 460 420
      vertex 700 440 20
      vertex 700 440 420
    endloop
  endfacet
  facet normal -0 0 1
    outer loop
      vertex 700 460 420
      vertex 900 440 420
      vertex 900 460 420
    endloop
  endfacet
  facet normal 0 0 1
    outer loop
      vertex 900 440 420
      vertex 700 460 420
      vertex 700 440 420
    endloop
  endfacet
  facet normal 1 -0 0
    outer loop
      vertex 900 440 420
      vertex 900 460 20
      vertex 900 460 420
    endloop
  endfacet
  facet normal 1 0 0
    outer loop
      vertex 900 460 20
      vertex 900 440 420
      vertex 900 440 20
    endloop
  endfacet
  facet normal 0 1 -0
    outer loop
      vertex 900 460 20
      vertex 700 460 420
      vertex 900 460 420
    endloop
  endfacet
  facet normal 0 1 0
    outer loop
      vertex 700 460 420
      vertex 900 460 20
      vertex 700 460 20
    endloop
  endfacet
  facet normal 0 -1 0
    outer loop
      vertex 700 440 20
      vertex 900 440 420
      vertex 700 440 420
    endloop
  endfacet
  facet normal 0 -1 -0
    outer loop
      vertex 900 440 420
      vertex 700 440 20
      vertex 900 440 20
    endloop
  endfacet
endsolid OpenSCAD_Model
